<svg xmlns="http://www.w3.org/2000/svg" version="1.1" xmlns:xlink="http://www.w3.org/1999/xlink" xmlns:svgjs="http://svgjs.dev/svgjs" width="1440" height="560" preserveAspectRatio="none" viewBox="0 0 1440 560"><g clip-path="url(&quot;#SvgjsClipPath1042&quot;)" fill="none"><path d="M1349.41 602.23C1374.3 600.72 1396.3 588.52 1414.48 571.44 1433.38 553.68 1449.9 532.25 1451.43 506.37 1453.04 479.15 1442.35 451.98 1422.65 433.13 1403.32 414.64 1376.1 406.95 1349.41 408.77 1324.44 410.47 1302.72 424.29 1285.51 442.47 1268.85 460.08 1258.73 482.19 1257.04 506.37 1255.21 532.6 1257.68 560.93 1275.92 579.86 1294.39 599.03 1322.84 603.85 1349.41 602.23" fill="#fd3f3f" stroke="none"></path><path d="M1366.41 592.23C1391.3 590.72 1413.3 578.52 1431.48 561.44 1450.38 543.68 1466.9 522.25 1468.43 496.37 1470.04 469.15 1459.35 441.98 1439.65 423.13 1420.32 404.64 1393.1 396.95 1366.41 398.77 1341.44 400.47 1319.72 414.29 1302.51 432.47 1285.85 450.08 1275.73 472.19 1274.04 496.37 1272.21 522.6 1274.68 550.93 1292.92 569.86 1311.39 589.03 1339.84 593.85 1366.41 592.23" fill="none" stroke-width="2" stroke="#db0202"></path><path d="M475.55 454.47C491.85 454.62 507.68 447.24 518.35 434.92 528.38 423.33 529.78 407.45 529.53 392.12 529.28 377.12 527.36 361.52 516.97 350.7 506.41 339.71 490.78 336.41 475.55 335.93 459.72 335.43 443.26 337.47 431.45 348.02 419.06 359.09 412.26 375.51 412.66 392.12 413.05 408.38 421.98 422.69 433.53 434.14 445.02 445.53 459.37 454.32 475.55 454.47" fill="rgba(89, 89, 89, 1)" stroke="none"></path><path d="M481.55 469.47C497.85 469.62 513.68 462.24 524.35 449.92 534.38 438.33 535.78 422.45 535.53 407.12 535.28 392.12 533.36 376.52 522.97 365.7 512.41 354.71 496.78 351.41 481.55 350.93 465.72 350.43 449.26 352.47 437.45 363.02 425.06 374.09 418.26 390.51 418.66 407.12 419.05 423.38 427.98 437.69 439.53 449.14 451.02 460.53 465.37 469.32 481.55 469.47" fill="none" stroke-width="2" stroke="#3e3e3e"></path><path d="M1029.51 194.34C1046.78 194.67 1062.57 185.3 1074.43 172.75 1085.94 160.57 1093.61 144.54 1092.38 127.83 1091.22 112.05 1079.32 100.39 1068.28 89.06 1057.02 77.51 1045.57 64.79 1029.51 63.29 1012.25 61.68 994.5 68.33 982.77 81.09 971.41 93.44 969.5 111.06 970.15 127.83 970.77 143.81 975.6 159.16 986.25 171.09 997.58 183.79 1012.49 194.02 1029.51 194.34" fill="rgba(245, 216, 109, 1)" stroke="none"></path><path d="M1015.51 209.34C1032.78 209.67 1048.57 200.3 1060.43 187.75 1071.94 175.57 1079.61 159.54 1078.38 142.83 1077.22 127.05 1065.32 115.39 1054.28 104.06 1043.02 92.51 1031.57 79.79 1015.51 78.29 998.25 76.68 980.5 83.33 968.77 96.09 957.41 108.44 955.5 126.06 956.15 142.83 956.77 158.81 961.6 174.16 972.25 186.09 983.58 198.79 998.49 209.02 1015.51 209.34" fill="none" stroke-width="2" stroke="#e8ba10"></path><path d="M1359.68 209.12C1381.57 208.75 1405.36 210.01 1421.26 194.96 1437.43 179.65 1440.61 155.63 1439.68 133.38 1438.8 112.17 1432.03 91.02 1416.34 76.72 1401.25 62.97 1380.05 61.95 1359.68 60.49 1336.92 58.85 1311.49 53 1294.25 67.95 1276.43 83.4 1275.27 109.8 1275.59 133.38 1275.91 156.55 1278.79 181.54 1296.01 197.05 1312.7 212.08 1337.22 209.5 1359.68 209.12" fill="rgba(245, 216, 109, 1)" stroke="none"></path><path d="M1375.68 220.12C1397.57 219.75 1421.36 221.01 1437.26 205.96 1453.43 190.65 1456.61 166.63 1455.68 144.38 1454.8 123.17 1448.03 102.02 1432.34 87.72 1417.25 73.97 1396.05 72.95 1375.68 71.49 1352.92 69.85 1327.49 64 1310.25 78.95 1292.43 94.4 1291.27 120.8 1291.59 144.38 1291.91 167.55 1294.79 192.54 1312.01 208.05 1328.7 223.08 1353.22 220.5 1375.68 220.12" fill="none" stroke-width="2" stroke="#e8ba10"></path><path d="M902.22 398.46C915.83 399.5 929.89 393.93 938.65 383.47 946.89 373.63 946.51 359.81 945.28 347.04 944.19 335.74 939.69 325.58 932.26 317 924.11 307.59 914.66 297.86 902.22 297.31 889.44 296.75 878.14 304.88 869.43 314.25 861.07 323.25 855.73 334.76 856.02 347.04 856.31 359.05 862.92 369.38 870.95 378.31 879.56 387.9 889.37 397.48 902.22 398.46" fill="rgba(245, 216, 109, 1)" stroke="none"></path><path d="M908.22 388.46C921.83 389.5 935.89 383.93 944.65 373.47 952.89 363.63 952.51 349.81 951.28 337.04 950.19 325.74 945.69 315.58 938.26 307 930.11 297.59 920.66 287.86 908.22 287.31 895.44 286.75 884.14 294.88 875.43 304.25 867.07 313.25 861.73 324.76 862.02 337.04 862.31 349.05 868.92 359.38 876.95 368.31 885.56 377.9 895.37 387.48 908.22 388.46" fill="none" stroke-width="2" stroke="#e8ba10"></path></g><defs><clipPath id="SvgjsClipPath1042"><rect width="1440" height="560" x="0" y="0"></rect></clipPath></defs></svg>
